<svg width="56" height="68" viewBox="0 0 56 68" fill="none" xmlns="http://www.w3.org/2000/svg">
<path fillRule="evenodd" clipRule="evenodd" d="M28.096 0.123047C35.4181 0.123047 42.4403 3.03174 47.6178 8.20924C52.7953 13.3867 55.704 20.4089 55.704 27.731C55.704 37.1607 50.5628 44.8787 45.1455 50.4156C42.4389 53.1521 39.4856 55.633 36.3232 57.8268L35.0164 58.7164L34.4029 59.1244L33.2465 59.8606L32.2158 60.4895L30.9397 61.2318C30.0735 61.7262 29.0934 61.9863 28.096 61.9863C27.0987 61.9863 26.1186 61.7262 25.2524 61.2318L23.9763 60.4895L22.3812 59.5078L21.7922 59.1244L20.5345 58.287C17.1229 55.9787 13.9451 53.3424 11.0466 50.4156C5.62926 44.8756 0.488037 37.1607 0.488037 27.731C0.488037 20.4089 3.39673 13.3867 8.57423 8.20924C13.7517 3.03174 20.7739 0.123047 28.096 0.123047ZM28.096 6.25816C22.4011 6.25816 16.9394 8.52047 12.9124 12.5474C8.88546 16.5744 6.62315 22.0361 6.62315 27.731C6.62315 34.8539 10.5251 41.1056 15.4301 46.1241C17.5391 48.2591 19.8187 50.2186 22.2462 51.9831L23.6511 52.9832C24.1051 53.3001 24.5418 53.5946 24.961 53.8666L26.1573 54.6335L27.2095 55.2746L28.096 55.793L29.4918 54.9679L30.6176 54.2623C31.2168 53.882 31.8579 53.4556 32.5409 52.9832L33.9459 51.9831C36.3733 50.2186 38.6529 48.2591 40.762 46.1241C45.667 41.1087 49.5689 34.8539 49.5689 27.731C49.5689 22.0361 47.3066 16.5744 43.2797 12.5474C39.2527 8.52047 33.791 6.25816 28.096 6.25816ZM28.096 15.4608C31.3503 15.4608 34.4713 16.7536 36.7724 19.0547C39.0735 21.3558 40.3663 24.4768 40.3663 27.731C40.3663 30.9853 39.0735 34.1063 36.7724 36.4074C34.4713 38.7085 31.3503 40.0013 28.096 40.0013C24.8418 40.0013 21.7208 38.7085 19.4197 36.4074C17.1186 34.1063 15.8258 30.9853 15.8258 27.731C15.8258 24.4768 17.1186 21.3558 19.4197 19.0547C21.7208 16.7536 24.8418 15.4608 28.096 15.4608ZM28.096 21.5959C26.4689 21.5959 24.9084 22.2423 23.7579 23.3929C22.6073 24.5434 21.9609 26.1039 21.9609 27.731C21.9609 29.3582 22.6073 30.9187 23.7579 32.0692C24.9084 33.2198 26.4689 33.8662 28.096 33.8662C29.7232 33.8662 31.2837 33.2198 32.4342 32.0692C33.5848 30.9187 34.2311 29.3582 34.2311 27.731C34.2311 26.1039 33.5848 24.5434 32.4342 23.3929C31.2837 22.2423 29.7232 21.5959 28.096 21.5959Z" fill="#225A7F"/>
</svg>
