<svg width="75" height="75" viewBox="0 0 75 75" fill="none" xmlns="http://www.w3.org/2000/svg">
<path d="M3.63241 7.12305H29.952L34.5135 27.645L28.8078 33.3506C32.1626 38.5717 36.6016 43.0097 41.8235 46.3632L47.5291 40.6606L68.0511 45.2221V71.5417H64.9835C53.1744 71.5618 41.613 68.1563 31.7005 61.7378C24.3912 57.0075 18.1666 50.7829 13.4363 43.4736C7.01783 33.5611 3.61228 21.9997 3.63241 10.1906V7.12305ZM9.85035 13.2582C10.3673 22.8287 13.3803 32.0972 18.5898 40.1422C22.8486 46.722 28.4521 52.3255 35.0319 56.5843C43.0769 61.7938 52.3454 64.8069 61.916 65.3238V50.1424L49.4832 47.3816L42.8143 54.0536L40.7805 52.8971C33.0584 48.5089 26.6653 42.1158 22.277 34.3936L21.1205 32.3598L27.7925 25.691L25.0317 13.2582H9.85035Z" fill="#225A7F"/>
</svg>
