<svg width="175" height="40" viewBox="0 0 175 40" fill="none" xmlns="http://www.w3.org/2000/svg">
<path fill-rule="evenodd" clip-rule="evenodd" d="M21.6924 10.1452H13.9361V26.47C13.9361 29.8772 13.3004 31.8357 10.9358 31.8357C9.20607 31.8357 7.85904 30.5391 7.85904 28.8093C7.85904 27.1067 9.207 25.7848 10.9358 25.7848C11.2915 25.7848 11.6219 25.4021 11.6219 26.1153V17.8763H10.8079C4.85694 17.8763 0 22.7081 0 28.8103C0 31.7862 1.06885 34.5064 3.05158 36.6432C5.08565 38.6782 7.85718 40 10.8079 40C15.7918 40 19.7582 36.8224 21.2079 31.5837C21.6401 30.0574 21.6915 28.4546 21.6915 26.7267L21.6924 10.1452ZM23.803 28.8093C23.803 31.7853 24.9979 34.5055 27.0833 36.6422C29.1174 38.6772 31.8889 39.9991 34.8387 39.9991C37.6364 39.9991 40.5097 38.6772 42.5438 36.6422C44.604 34.5055 45.824 31.7853 45.824 28.8093C45.824 26.0378 44.604 23.1897 42.5438 21.1295C40.5097 19.0189 37.6364 17.8754 34.8387 17.8754C31.2793 17.8754 27.7442 19.6294 25.6597 22.7837C24.4387 24.6656 23.803 26.7258 23.803 28.8093ZM58.8434 31.481C57.165 31.481 55.7918 30.1573 55.7918 28.6077C55.7918 26.7519 57.038 25.4534 58.8686 25.4534H66.1928V17.8763H58.8434C55.8432 17.8763 53.0707 19.0208 50.9601 21.1305C48.9764 23.1907 47.7564 26.0387 47.7564 28.8103C47.7564 32.4219 49.6131 35.9552 52.6637 38.0415C54.5456 39.2373 56.6049 40 58.8434 40H66.3449V31.354C63.0133 29.0903 62.6324 31.1235 58.8434 31.481ZM80.6357 27.1832V18.5372H77.1006V10.6026H69.2434V28.6077C69.2434 35.3466 73.6168 39.9991 79.5417 39.9991H80.6348V31.3531H80.0252C78.1433 31.3531 77.1006 30.2842 77.1006 28.0224V27.1841L80.6357 27.1832ZM82.8985 28.8093C82.8985 31.7853 84.0943 34.5055 86.2301 36.6422C88.3417 38.6772 91.087 39.9991 93.9865 39.9991C96.7318 39.9991 99.6061 38.6772 101.691 36.6422C103.75 34.5055 104.92 31.7853 104.92 28.8093C104.92 26.0378 103.75 23.1897 101.691 21.1295C99.6061 19.0189 96.7328 17.8754 93.9865 17.8754C90.2469 17.8754 86.8658 19.6294 84.7552 22.7837C83.5603 24.6656 82.8985 26.7258 82.8985 28.8093ZM115.243 30.4121C115.243 27.6667 115.549 26.4448 117.533 26.4448C117.735 26.4448 118.244 26.4448 118.727 26.47V18.1806C117.914 18.0537 116.896 17.8754 115.802 17.8754C113.818 17.8754 111.504 18.7398 110.029 20.4191C107.665 22.7071 107.156 25.3256 107.156 29.0903V39.2364H115.242L115.243 30.4121ZM151.098 26.1153L163.075 28.4546L166.585 25.2005L168.109 25.9883C168.873 24.1064 169.408 21.7167 169.408 19.733C169.408 8.87561 160.456 0 149.675 0C138.741 0 129.891 8.84947 129.891 19.733C129.891 30.667 138.028 39.2868 148.988 39.2868C153.208 39.2868 158.091 38.4224 163.076 36.8709C167.652 38.2198 169.789 38.8294 173.425 37.7111L174.646 33.7438L166.712 30.1573L167.653 27.2345L166.916 26.624L163.636 29.6504L149.752 27.1832C145.963 27.1832 142.835 23.6229 142.835 19.859C142.835 16.1979 146.039 13.0184 149.676 13.0184C153.337 13.0184 156.312 16.197 156.312 19.859C156.314 21.0944 156.027 22.3131 155.474 23.4175C154.608 25.1995 153.233 26.1153 151.098 26.1153Z" fill="#0B121B"/>
<path fill-rule="evenodd" clip-rule="evenodd" d="M11.4692 32.9563C7.24799 33.184 5.36607 28.9637 7.93504 25.8095C8.64635 25.1747 9.4865 24.7173 10.5283 24.5894V19.0202C4.57728 19.2499 0.509131 24.4615 1.29793 30.2846C1.62838 34.7859 5.49396 38.1941 9.84122 38.8279C14.7234 39.0576 18.0802 36.6417 19.8604 32.1656C20.3682 30.5133 20.4447 29.3437 20.5213 27.6401V11.2396H15.0286C15.0286 16.9096 15.2573 22.7084 15.0034 28.3271C14.7756 30.6403 13.9616 32.624 11.4692 32.9563ZM32.4223 38.5497C38.0167 40.1777 43.6625 35.7017 44.6025 30.2846C45.0347 26.3173 43.3815 22.9119 40.1777 20.6977C34.7868 17.0104 27.7175 19.6298 25.5313 25.6825C25.342 26.1158 25.1972 26.5671 25.0991 27.0295C24.005 32.0405 27.7185 37.1514 32.4223 38.5497ZM54.9269 30.1577C54.0363 27.107 55.6391 24.5894 58.8429 24.3616H65.0468V18.995C59.4786 18.995 54.9007 18.181 51.163 22.6823C49.7133 24.5894 49.002 26.3434 48.8751 28.8097C49.129 33.718 52.0023 37.2783 56.707 38.5749C59.2247 39.2863 62.6319 38.8279 65.2513 38.8279V32.0144C64.6156 31.7595 64.132 31.3777 63.3441 31.4804C60.1656 32.3962 57.0375 33.7441 54.9269 30.1577ZM70.3612 28.6081C70.6412 34.3808 73.3371 38.5497 79.4142 38.8289V32.4223C76.9731 32.4223 76.0573 30.0578 75.9304 28.048V26.0895H79.4142V19.6307H75.9304V11.7222H70.3612V28.6081ZM90.7056 38.2193C95.4347 39.8968 99.809 37.8123 102.401 33.845C105.122 28.988 103.748 23.852 99.3255 20.6977C93.8832 17.0104 86.8139 19.6298 84.6268 25.6825C83.2032 30.0569 84.7537 33.845 88.1871 36.8209C88.9245 37.3791 89.8907 37.8879 90.7056 38.2193ZM112.497 19.8856C109.192 21.7161 108.478 24.9199 108.327 28.4036V38.0923H114.1C114.1 34.9147 113.947 31.6092 114.151 28.4802C114.482 26.4452 115.371 25.1999 117.608 25.1999V19.1472C115.37 18.9446 114.608 18.995 112.497 19.8856ZM160.048 4.29723C152.75 -0.635328 142.757 0.407383 136.501 6.58615C130.526 12.5875 129.381 22.097 133.576 29.3437C136.73 34.658 141.841 37.8123 148.02 38.1931C153.081 38.321 158.294 37.2522 163.074 35.599C165.439 36.3887 168.287 37.3782 170.728 37.1252C171.339 37.0235 171.999 36.8704 172.507 36.8209L173.297 34.3798L165.311 30.7682L165.845 29.1654L163.989 30.8961L149.648 28.3271C144.663 28.1759 140.977 23.1658 141.866 18.2837C143.544 12.1553 150.563 9.66386 155.19 14.3164C158.038 17.4445 158.319 22.6058 155.215 25.7861L162.767 27.1845L166.455 23.8538L167.524 24.4625C169.788 16.6053 166.508 9.02722 160.048 4.29723Z" fill="white"/>
<path fill-rule="evenodd" clip-rule="evenodd" d="M6.58712 31.837C4.75655 28.7079 5.90101 24.8937 9.38479 23.6745V20.2925C4.57825 21.4631 1.98502 25.1747 2.39109 30.1838C2.84943 34.2024 6.15492 37.0244 9.96915 37.7114C13.1738 37.7628 16.021 36.6426 17.6742 33.8458C19.0473 31.7091 19.2004 30.1576 19.4291 27.5392V12.4092H16.1488C16.1488 17.6983 16.3523 23.1649 16.0975 28.454C15.9453 29.801 15.6401 31.2507 14.7243 32.3961C12.5372 35.0398 8.4429 34.4563 6.58712 31.837ZM33.6686 37.5835C40.5344 38.4479 45.8235 30.896 42.4928 24.7938C40.8396 22.1231 38.856 20.8013 35.7801 20.2412C31.305 19.9369 28.1769 22.0969 26.4984 26.1156C26.4984 26.3182 26.2949 26.7523 26.2445 26.9287C25.5313 32.1665 28.456 36.566 33.6686 37.5835ZM63.9538 20.1133C59.3255 20.0125 54.8504 19.6307 51.824 23.6736C48.315 28.2262 50.2987 34.6589 55.5113 36.9721C56.961 37.506 58.2828 37.8869 59.8343 37.8869C61.1822 37.9383 62.7841 37.7609 64.132 37.7609V32.7509L63.8529 32.6491L63.5477 32.6239C62.785 32.6239 61.4875 33.2344 60.6996 33.3623C57.5472 34.0736 55.6392 33.2344 53.9607 30.6402C52.918 26.7261 54.6217 23.5971 58.8177 23.191H63.9547L63.9538 20.1133ZM72.371 33.0309C73.6676 35.5999 75.4226 37.0234 78.2968 37.5835V33.465C74.5068 31.9135 74.7869 28.4549 74.7869 24.9198H78.2968V20.8013H74.7869V12.8927H71.4805V28.4801C71.6074 30.0316 71.8623 31.5831 72.371 33.0309ZM94.1372 37.7114C99.2499 37.2792 103.141 32.9562 102.529 27.6671C101.793 22.5544 97.0105 19.4785 92.0023 20.3943C86.2044 22.0204 83.4329 27.8948 86.4583 33.2353C88.4158 35.9807 90.7057 37.5322 94.1372 37.7114ZM110.081 24.4876C108.962 28.327 109.445 32.9562 109.445 36.973H112.928C112.928 35.0146 112.877 32.8293 112.928 30.896C112.928 28.0479 113.183 24.9198 116.463 24.2598V20.2412C113.335 20.2412 111.2 21.4883 110.081 24.4876ZM137.9 6.84093C135.333 9.38376 133.68 12.0022 132.764 15.5121C131.187 21.5891 132.968 27.6671 137.112 32.1674C140.697 35.7278 144.894 37.0244 149.928 37.0244C154.353 36.8965 158.98 35.8304 163.075 34.5067C165.415 35.2703 168.567 36.3392 171.085 35.9303C171.238 35.9303 171.492 35.8043 171.645 35.8043L171.849 35.0146L164.728 31.7604L164.347 32.1161C158.804 31.1004 153.057 30.4134 147.513 29.1663C143.062 27.5401 140.547 23.9537 140.673 19.0967C141.258 14.5198 144.716 11.1126 149.344 10.8073C155.702 10.9343 159.694 16.5287 158.193 22.6057C158.04 23.4188 157.633 24.2589 157.252 25.0216L162.363 25.9877L166.254 22.5291L166.737 22.784C167.17 21.8944 167.144 19.0202 166.992 18.054C166.077 9.99332 159.871 3.35622 151.71 2.4162C146.343 2.00826 141.969 3.35622 137.9 6.84093Z" fill="#225A7F"/>
<path fill-rule="evenodd" clip-rule="evenodd" d="M30.1854 26.6241C31.9908 23.9533 34.458 23.0376 37.4583 24.5891C39.5185 26.0892 40.3829 28.4033 39.3906 30.8957C38.8566 31.7853 38.3992 32.2941 37.6366 32.9559C33.0335 35.5734 28.4314 31.3783 30.1854 26.6241ZM89.3826 26.7006C91.2132 23.6229 94.3927 22.8098 97.2408 25.1491C99.7332 27.6668 99.3756 31.2514 96.4277 33.235C93.1455 34.6334 89.9427 33.3116 89.0531 29.8017C88.8506 28.6077 88.9504 27.7928 89.3826 26.7006Z" fill="white"/>
<path fill-rule="evenodd" clip-rule="evenodd" d="M30.9225 28.0228C32.3974 23.1659 39.2119 24.3617 38.6779 29.6508C37.9918 31.837 36.3638 32.9049 34.101 32.6501C31.8121 32.1666 30.6686 30.3108 30.9225 28.0228ZM90.1206 28.0228C91.5703 23.1659 98.3083 24.3617 97.7743 29.6508C97.2907 31.2517 96.4273 32.1666 94.7983 32.6501C91.7468 33.031 89.7631 30.9726 90.1206 28.0228Z" fill="#0B121B"/>
<path fill-rule="evenodd" clip-rule="evenodd" d="M31.9648 28.8096C31.9648 27.1835 33.2876 26.0381 34.8381 26.0381C36.2374 26.0381 37.6358 27.3851 37.6358 28.8096C37.6358 30.4124 36.2374 31.583 34.8381 31.583C33.2867 31.583 31.9648 30.4124 31.9648 28.8096ZM91.163 28.8096C91.163 27.1835 92.383 26.0381 93.9849 26.0381C95.4346 26.0381 96.7303 27.3851 96.7303 28.8096C96.7325 29.1721 96.6632 29.5314 96.5264 29.8671C96.3895 30.2027 96.1878 30.5081 95.9328 30.7657C95.6778 31.0233 95.3745 31.2281 95.0403 31.3684C94.706 31.5086 94.3474 31.5815 93.9849 31.583C92.383 31.583 91.163 30.4124 91.163 28.8096Z" fill="white"/>
</svg>
